# xmcd CD database file
#
# Track frame offsets:
#	150
#	16317
#	37416
#	56766
#	79060
#	96087
#	119866
#	137277
#	159027
#	176751
#	198609
#	221234
#
# Disc length: 3184 seconds
#
# Revision: 0
# Processed by: cddbd v1.5.2PL0 Copyright (c) Steve Scherf et al.
# Submitted via: CDex 1.70beta2
#
DISCID=ad0c6e0c
DTITLE=Mike Burns - Femmes Fatales
DYEAR=2005
DGENRE=New Age
TTITLE0=Mea - Red Light Go
TTITLE1=Layla - Waiting For You
TTITLE2=Andrea Burns - 100 Stories Noel Sanger Rmx
TTITLE3=Colette - Feeling Hypnotized Black Liquid Rmx
TTITLE4=Dena Carman - Beautiful Liar
TTITLE5=DJ Keri - In My Eyes
TTITLE6=Angelique - I Couldn't Believe
TTITLE7=Jes - Everything With You
TTITLE8=Colleen Kelly - Remember Me
TTITLE9=Celeste Lear - Letter From A Train
TTITLE10=Eve Falcon - Know It All
TTITLE11=Jan Jonston - Transparent Interstate Rmx
EXTD=YEAR: 2005
EXTT0=
EXTT1=
EXTT2=
EXTT3=
EXTT4=
EXTT5=
EXTT6=
EXTT7=
EXTT8=
EXTT9=
EXTT10=
EXTT11=
PLAYORDER=
